<svg viewBox="0 0 1200 360" width="1200" height="360" xmlns="http://www.w3.org/2000/svg">
  <defs>
    <linearGradient id="bg" x1="0" y1="0" x2="0" y2="1">
      <stop offset="0%" stop-color="#0d1117"/>
      <stop offset="50%" stop-color="#111827"/>
      <stop offset="100%" stop-color="#1a2233"/>
    </linearGradient>
    <radialGradient id="glow" cx="50%" cy="30%" r="60%">
      <stop offset="0%" stop-color="#3b82f6" stop-opacity="0.25"/>
      <stop offset="100%" stop-color="#3b82f6" stop-opacity="0"/>
    </radialGradient>
    <linearGradient id="line1" x1="0" y1="0" x2="1" y2="0">
      <stop offset="0%" stop-color="#ffffff" stop-opacity="0"/>
      <stop offset="50%" stop-color="#ffffff" stop-opacity="0.4"/>
      <stop offset="100%" stop-color="#ffffff" stop-opacity="0"/>
    </linearGradient>
  </defs>

  <rect x="0" y="0" width="1200" height="360" fill="url(#bg)"/>
  <rect x="0" y="0" width="1200" height="360" fill="url(#glow)"/>

  <g opacity="0.12">
    <circle cx="150" cy="80" r="120" fill="#60a5fa"/>
    <circle cx="1080" cy="300" r="160" fill="#818cf8"/>
    <circle cx="1000" cy="60" r="60" fill="#38bdf8"/>
  </g>

  <g opacity="0.15" stroke="#93c5fd" stroke-width="1">
    <line x1="60" y1="60" x2="200" y2="60"/>
    <line x1="60" y1="60" x2="60" y2="140"/>
    <line x1="1140" y1="300" x2="1000" y2="300"/>
    <line x1="1140" y1="300" x2="1140" y2="220"/>
  </g>

  <g opacity="0.2">
    <rect x="90" y="250" width="30" height="30" rx="4" fill="none" stroke="#a5b4fc"/>
    <rect x="1080" y="80" width="24" height="24" rx="4" fill="none" stroke="#a5b4fc"/>
    <path d="M1090 100 l10 10" stroke="#a5b4fc"/>
  </g>

  <line x1="300" y1="150" x2="900" y2="150" stroke="url(#line1)" stroke-width="1"/>

  <text x="600" y="175" text-anchor="middle" font-family="Segoe UI, Arial, sans-serif" font-size="56.0" font-weight="700" fill="#ffffff">
    <tspan x="600" dy="0">Build Base Steal Script</tspan>
  </text>

  <text x="600" y="235" text-anchor="middle" font-family="Segoe UI, Arial, sans-serif" font-size="20.0" fill="#c9d1d9">
    <tspan x="600" dy="0">Windows tool for Build a Base and Steal players — organize scripts and launch them</tspan>
    <tspan x="600" dy="30">without digging through fo…</tspan>
  </text>

  <g opacity="0.1">
    <circle cx="600" cy="330" r="3" fill="#ffffff"/>
    <circle cx="560" cy="330" r="3" fill="#ffffff"/>
    <circle cx="640" cy="330" r="3" fill="#ffffff"/>
  </g>
</svg>